<?xml version="1.0" encoding="UTF-8"?>
<svg id="Layer_1" data-name="Layer 1" xmlns="http://www.w3.org/2000/svg" viewBox="0 0 885 886">
  <path d="M885,886H0V0c295,0,590,0,885,0v886ZM255.68,74.04h-58.49c3.07,14.56,2.63,29.76,4.51,44.74,2.3,18.28,9.19,34.37,22.75,46.92,8.88,8.21,18.67,15.43,28.15,22.98,4.47,3.56,8.46,7.77,14.36,10.99,4.71-35.12-11.95-62.79-28.36-91.2,4.82-2.25,9.67-2.76,14.58-2.77,42.61-.02,85.22-.02,127.84.01,48.43.03,96.87.04,145.3.18,31.12.09,62.25,1.11,93.35.39,26.65-.62,51.27,5.05,74.17,18.44,29.35,17.16,47.78,42.41,53.39,75.92,4.53,27.05,2.18,54.43.62,81.66-.38,6.73-4.07,9.48-10.94,9.2-14.35-.57-28.71-.1-43.09-.62-44.38-1.6-88.74-1.33-132.92,4.6-42.14,5.65-83.39,14.7-123.16,29.9-7.56,2.89-15.24,5.7-21.77,10.73-1.13.87-2.68,1.72-2,3.6.61,1.68,1.86,2.77,3.69,2.92,1.32.11,2.66.05,3.99.06,42.5.3,84.71,3.92,126.39,12.35,28.63,5.79,56.53,14.32,83.7,25.13,37.63,14.98,72.91,34.26,105.97,57.67,7.96,5.64,11.89,12.72,11.63,22.69-.49,18.3-.33,36.61-.43,54.92-.02,4.21,0,8.42,0,13.05-5.12-2.13-9.62-3.01-13.14-5.98-23.88-20.14-48.63-39.1-74.99-55.92-26.43-16.87-54.35-30.77-83.55-42.12-27.78-10.8-56.34-18.68-85.61-24.51-21.5-4.28-43.14-7.17-64.86-9.32-23.1-2.29-46.28-4.06-69.48.7-11.83,2.43-24.11,2.55-36.06,4.49-20.58,3.33-41.28,6.06-61.61,10.76-5.87,1.36-12.05,1.03-17.69,3.35-12.26,5.03-24.49,10.11-36.69,15.3-8.87,3.77-17.4,8.27-25.25,13.85-3.4,2.42-7.11,5.06-8.3,9.92,1.16.11,1.66.26,2.13.19,30.27-4.08,60.64-6.78,91.21-7.22,18.97-.27,37.91.25,56.81,1.7,38.15,2.94,75.88,8.58,112.8,18.9,12.6,3.52,25.1,7.28,37.47,11.66,34.63,12.26,67.48,28.03,98.75,47.26,19.42,11.95,37.82,25.3,55.49,39.65,24.55,19.94,47.11,41.96,67.61,66.07,14.76,17.37,28,35.84,39.47,55.52,4.85,8.33,9.37,17,5.74,27.31-3.33,9.47-8.2,18.05-14.59,25.73-6.7,8.05-13.69,15.86-22.93,21.2-3.55,2.05-6.54,1.93-8.73-2.12-1.89-3.5-4.1-6.83-6-10.32-15.82-28.95-33.98-56.3-55.2-81.6-13.91-16.58-29.3-31.69-45.66-45.77-23.31-20.06-48.09-38.12-74.36-54.22-39.2-24.03-81.09-41.65-125.06-54.64-18.06-5.33-36.5-8.99-55.01-12.34-37.27-6.74-74.86-7.36-112.52-4.95-22.23,1.43-44.41,3.63-66.62,5.46-2.65.22-5.34.64-7.95.38-3.99-.41-6.83-2.17-6.56-7,.25-4.46.16-8.95.08-13.42-.96-55.01,1.24-110.04-1.17-165.04-.34-7.76.23-15.55.25-23.32.01-6.45,3.09-11.13,8.32-14.42,3.07-1.93,6.42-3.48,9.77-4.88,13.41-5.61,27.32-9.6,42.35-12.47-4.77-2.71-9.05-4.84-11.88-8.82,2.18-.02,4.21.53,6.26,1.26,10.46,3.77,21.23,5.3,32.33,4.15,13.24-1.37,26.25-4.17,39.14-7.27,6.29-1.51,11.62-5.79,16.87-9.93-4.36-6.4-8.87-12.11-11.48-18.73-3.19-8.1-8.84-13.8-15.32-19.13-3.84-3.16-7.82-6.11-11.86-8.99-15.99-11.42-33.64-19.25-52.6-24.1-22.77-5.82-46.12-7.33-69.45-8.87-1.7-.11-3.65-.71-5.42.92,1.14,6.09,2.74,12.14,5.24,17.91,12.37,28.56,30.11,52.59,57.86,68.08-.58.81-1.31.76-2.19.49-12.6-3.88-25.28-3.16-37.99-.61-16.66,3.35-30.65,18.52-30.83,35.21-.28,25.75-.05,51.52.84,77.26.56,16.13,1.09,32.27.77,48.37-.47,23.63.29,47.24-.03,70.87-.53,39.72.24,79.46-.03,119.2-.11,16.77-.63,33.54-.25,50.33.46,20.33,1.28,40.58,5.9,60.41,10.51,45.13,39.66,74.83,80.07,94.7,23.72,11.66,49.16,15.21,75.38,15.16,76.08-.16,152.15-.07,228.23-.08,8.93,0,17.86,0,27.99,0-25.08-39.78-55.46-73.49-90.86-102.56-86.08-70.7-184.65-100.97-295.73-88.76-.34-1.87-.61-2.66-.61-3.46,0-17.14.09-34.28,0-51.42-.02-3.26,1.94-3.3,4.17-3.56,9.27-1.09,18.61-.91,27.91-1.45,31.26-1.8,62.43-.09,93.35,3.99,20.53,2.71,40.85,7.3,60.83,13.23,27.21,8.07,53.71,17.84,79.19,30.31,27.63,13.52,53.63,29.77,78.08,48.4,23.86,18.18,45.36,38.96,65.46,61.21,11.15,12.34,21.9,25.11,31.17,38.83,10.45,15.47,20.33,31.43,28.92,48.06,1.69,3.28,3.89,4.63,7.33,4.72,7.82.2,15.63.62,23.45.68,15.14.1,30.43-.28,44.58-6.06,35.43-14.47,63.27-37.9,82.08-71.66,16.85-30.23,21.98-63.23,22.34-97.05.61-56.43.44-112.87.24-169.3-.28-79.37,1.29-158.76-2.03-238.1-.58-13.83-2.84-27.47-6.5-40.77-9.58-34.79-29.47-62.53-58.75-83.5-22.97-16.46-48.53-26.56-76.6-30.08-16.22-2.03-32.55-1.83-48.84-1.85-97.72-.11-195.44-.08-293.16-.09-14.81,0-29.62.09-44.43.14h-1.05ZM190.34,309.62c1.71-2.87,2.6-4.56,3.97-5.97,5.75-5.91,11.29-12.03,16.21-18.65,3.89-5.24,9.25-7.2,15.39-7.92,12.84-1.5,25.76-2.53,38.1-6.84,1.54-.54,3.12-2.63,4.88-.71,1.64,1.79-.16,3.48-.89,4.9-9.9,19.27-11.27,39.69-8.55,60.72.86,6.63,2.04,13.13,5.57,18.96.78,1.29,1.45,2.66,1.16,4.23-1.76,9.61-3.25,19.22-7.53,28.25-3.12,6.58-6.6,13.01-9.97,19.89,4.45-.21,5.69-3.41,7.43-5.9,6.67-9.58,11.37-20.24,16.68-30.57,1.65-3.21,3.82-4.94,7.73-5.16,5.1-.28,10.23-1.11,14.99-3.32,16.18-7.51,25.77-21.23,34.05-36.17,3.27-5.89,5.78-12.12,8-19.9,4.6,13.98,4.6,27.54,9.52,39.94,2.23-1.74,2.19-1.76,2.88-3.65,3.15-8.55,1.43-16.75-2.15-24.63-6.12-13.48-8.2-27.31-4.8-42.57,11.71,10.35,21.54,21.45,29.84,34,7.74,11.71,9.46,24.15,5.92,37.56-3.01,11.42-6.72,22.54-13.91,33.22,4.58-.39,2.81,3.66,4.91,5.22,3.21-.9,3.85-3.77,4.81-6.31.7-1.85,1.06-3.83,1.74-5.68,4.24-11.47,9.02-22.72,10.9-34.98,2.69-17.45.64-33.4-12.72-46.31-7.32-7.07-15.36-13.51-24.4-17.94-7.57-3.71-8.23-9.26-8.13-15.97,11.01.16,21.79.68,32.59.1,11.55-.62,20.74,3.64,27.25,13.36,2.77,4.13,5.53,8.28,8.46,12.3,2.68,3.67,5.79,6.9,10.96,8.03-.39-1.71-.35-3.33-1.09-4.45-6.91-10.49-12.3-22.08-21.83-30.7-5.2-4.7-11.05-7.51-18.37-7.49-9.38.04-18.56,1.66-27.61,3.51-4.09.83-7.5.22-10.92-.92-3.18-1.06-5.34-3.86-3.55-7.45,2.47-4.96,3.59-10.41,4.91-15.59.71-2.79,3.18-7.4-1.4-10.05,15.48-16.76,35.22-25.08,56.17-29.99,20.85-4.89,42.05-9.2,64.6-5.03-1.62-4.64-4.85-4.84-7.52-5.32-12.12-2.17-24.15-.68-36.2,1.02-21.37,3.02-42.15,8-61.38,18.16-7.63,4.03-15.9,7.09-22.03,14.78.04-3.9-.16-6.47-3.77-6.66-.78-.04-1.34.14-2.01-.77-6.28-8.5-12.5-17-19.23-25.2-10.16-12.38-23.94-15.24-37.67-19.35-1.36,2.61.15,3.23,1.47,3.86,3.64,1.74,7.02,3.94,10.8,5.46,17.63,7.08,30.52,18.43,34.38,38.11.69,3.49-.69,5.39-3.09,6.28-5.84,2.19-7.79,6.79-8.77,12.23-.42,2.33-.62,4.7-.93,7.05-.42.12-.84.23-1.25.35-7.83-11.17-10.05-25.31-17.65-36.82-3.37,2-.55,5.74-3.07,7.34-1.98-2.32-1.62-5.49-2.8-8.37-3.51.71-5.5,1.94-3.58,5.69.91,1.77,1.51,3.77,2.72,5.29,7.03,8.76,12.03,18.91,19.72,27.84-7.76.99-12.91,5.19-16.65,11.14-3.6,5.72-6.85,11.66-10.3,17.59-1.7-1.25-3.38-.75-5.18-.46-14.43,2.3-28.8,5.83-43.41,6.02-21,.27-34.19,21.74-34.44,41.34Z" style="fill: #fefefe; stroke-width: 0px;"/>
  <path d="M185.7,247.52c2.83,3.98,7.11,6.11,11.88,8.82-15.03,2.87-28.94,6.86-42.35,12.47-3.35,1.4-6.7,2.95-9.77,4.88-5.22,3.28-8.3,7.97-8.32,14.42-.02,7.78-.59,15.57-.25,23.32,2.41,55,.21,110.03,1.17,165.04.08,4.47.17,8.96-.08,13.42-.27,4.82,2.57,6.59,6.56,7,2.61.27,5.3-.16,7.95-.38,22.2-1.83,44.39-4.03,66.62-5.46,37.66-2.41,75.25-1.8,112.52,4.95,18.5,3.35,36.95,7.01,55.01,12.34,43.97,12.99,85.86,30.61,125.06,54.64,26.28,16.1,51.05,34.16,74.36,54.22,16.36,14.08,31.75,29.19,45.66,45.77,21.23,25.3,39.38,52.65,55.2,81.6,1.91,3.49,4.12,6.82,6,10.32,2.18,4.04,5.18,4.16,8.73,2.12,9.24-5.33,16.23-13.15,22.93-21.2,6.39-7.67,11.26-16.26,14.59-25.73,3.63-10.32-.89-18.98-5.74-27.31-11.47-19.68-24.71-38.15-39.47-55.52-20.49-24.11-43.06-46.13-67.61-66.07-17.66-14.35-36.07-27.7-55.49-39.65-31.27-19.23-64.12-35-98.75-47.26-12.37-4.38-24.87-8.14-37.47-11.66-36.92-10.32-74.65-15.96-112.8-18.9-18.89-1.46-37.84-1.98-56.81-1.7-30.57.44-60.94,3.15-91.21,7.22-.47.06-.97-.08-2.13-.19,1.19-4.86,4.89-7.5,8.3-9.92,7.85-5.58,16.38-10.08,25.25-13.85,12.19-5.19,24.43-10.27,36.69-15.3,5.64-2.31,11.81-1.99,17.69-3.35,20.33-4.69,41.03-7.43,61.61-10.76,11.95-1.93,24.23-2.06,36.06-4.49,23.2-4.76,46.38-2.98,69.48-.7,21.72,2.15,43.36,5.04,64.86,9.32,29.27,5.83,57.83,13.71,85.61,24.51,29.2,11.35,57.11,25.25,83.55,42.12,26.36,16.83,51.11,35.78,74.99,55.92,3.52,2.97,8.02,3.86,13.14,5.98,0-4.63-.02-8.84,0-13.05.1-18.31-.06-36.62.43-54.92.27-9.98-3.66-17.06-11.63-22.69-33.06-23.4-68.34-42.69-105.97-57.67-27.17-10.81-55.07-19.34-83.7-25.13-41.68-8.43-83.89-12.06-126.39-12.35-1.33,0-2.67.05-3.99-.06-1.83-.16-3.08-1.24-3.69-2.92-.68-1.88.87-2.73,2-3.6,6.53-5.03,14.22-7.85,21.77-10.73,39.77-15.19,81.02-24.24,123.16-29.9,44.19-5.93,88.55-6.2,132.92-4.6,14.38.52,28.73.04,43.09.62,6.88.28,10.56-2.47,10.94-9.2,1.56-27.23,3.91-54.61-.62-81.66-5.61-33.51-24.05-58.77-53.39-75.92-22.9-13.39-47.52-19.05-74.17-18.44-31.1.72-62.23-.3-93.35-.39-48.43-.14-96.87-.15-145.3-.18-42.61-.03-85.22-.03-127.84-.01-4.91,0-9.77.52-14.58,2.77,16.41,28.42,33.07,56.09,28.36,91.2-5.89-3.22-9.89-7.43-14.36-10.99-9.48-7.55-19.27-14.77-28.15-22.98-13.57-12.55-20.46-28.64-22.75-46.92-1.88-14.98-1.44-30.18-4.51-44.74h58.49c-1.1,1.31-2.61.74-3.97.88h-23.76c0,.33,0,.67.01,1h42.44c-4.51-1.84-9.26.19-13.67-1.87,14.81-.05,29.62-.14,44.43-.14,97.72,0,195.44-.02,293.16.09,16.29.02,32.62-.18,48.84,1.85,28.07,3.52,53.62,13.62,76.6,30.08,29.28,20.97,49.17,48.71,58.75,83.5,3.66,13.3,5.92,26.94,6.5,40.77,3.32,79.34,1.74,158.73,2.03,238.1.2,56.43.37,112.87-.24,169.3-.37,33.82-5.49,66.81-22.34,97.05-18.81,33.76-46.65,57.19-82.08,71.66-14.14,5.78-29.44,6.16-44.58,6.06-7.82-.05-15.63-.48-23.45-.68-3.44-.09-5.64-1.44-7.33-4.72-8.6-16.64-18.47-32.59-28.92-48.06-9.27-13.72-20.03-26.49-31.17-38.83-20.09-22.25-41.59-43.03-65.46-61.21-24.45-18.63-50.44-34.88-78.08-48.4-25.48-12.47-51.98-22.24-79.19-30.31-19.98-5.93-40.3-10.52-60.83-13.23-30.92-4.07-62.1-5.79-93.35-3.99-9.3.54-18.63.36-27.91,1.45-2.23.26-4.19.3-4.17,3.56.1,17.14,0,34.28,0,51.42,0,.79.27,1.59.61,3.46,111.07-12.21,209.64,18.06,295.73,88.76,35.4,29.07,65.78,62.78,90.86,102.56-10.13,0-19.06,0-27.99,0-76.08,0-152.15-.08-228.23.08-26.21.05-51.66-3.5-75.38-15.16-40.41-19.87-69.56-49.57-80.07-94.7-4.62-19.83-5.44-40.08-5.9-60.41-.38-16.79.14-33.56.25-50.33.27-39.74-.51-79.48.03-119.2.32-23.63-.44-47.24.03-70.87.32-16.09-.21-32.24-.77-48.37-.89-25.73-1.12-51.51-.84-77.26.18-16.68,14.17-31.86,30.83-35.21,12.71-2.55,25.39-3.27,37.99.61.88.27,1.6.32,2.19-.49,2.8,1.56,5.61,3.13,8.41,4.69ZM133.61,665.15c11.18,2.69,21.38,6.51,31.41,10.89,28.26,12.34,48.78,32.73,62.97,59.82,5.81,11.1,9.24,23.04,11.99,35.19.92,4.06,2.67,6.44,7.35,6.33,5.97-.13,11.96.45,17.94.53,20.72.28,41.43,1.18,62.16.66,1.9-.05,3.98.29,5.03-2.15.96-2.22-.59-3.25-1.61-4.75-7.57-11.22-16.92-20.92-26.01-30.86-15.06-16.47-32.15-30.67-50.32-43.4-9-6.3-18.91-11.53-28.96-16.3-22.77-10.81-46.12-19.55-71.45-22.07-7.49-.75-14.12.85-20.51,6.12ZM487.73,599.63l-2.13,2.89c8.08,5.29,16.69,9.82,25.08,14.64,9.17,5.27,18.53,10.13,28.25,14.35,9.25,4.02,18.68,7.37,28.5,9.93-26.11-14.95-54.75-24.79-79.71-41.82ZM644.97,328.6c25.8,8.18,52.59,9.55,79.1,12.61-25.56-9.25-52.35-11.15-79.1-12.61ZM655.91,502.82c-17.24-9.22-35.86-13.85-54.98-16.84,18.35,5.52,36.59,11.45,54.98,16.84ZM398.52,742.33c9.47,6.48,19.8,6.24,30.56,7.57-4.46-3.78-20.37-7.56-30.56-7.57ZM304.26,685.77c10.09,1.46,20.14,1.07,30.2.44-10.01-3.69-20.13-2.33-30.2-.44ZM502.04,446.15c-8.76-2.83-17.44-6-26.81-6.03,8.63,3.38,17.65,5.04,26.81,6.03Z" style="fill: #087447; stroke-width: 0px;"/>
  <path d="M190.34,309.62c.25-19.61,13.44-41.07,34.44-41.34,14.61-.19,28.98-3.72,43.41-6.02,1.8-.29,3.47-.79,5.18.46,3.45-5.93,6.71-11.87,10.3-17.59,3.74-5.95,8.89-10.14,16.65-11.14-7.69-8.92-12.69-19.07-19.72-27.84-1.22-1.51-1.81-3.52-2.72-5.29-1.92-3.74.07-4.98,3.58-5.69,1.18,2.89.83,6.05,2.8,8.37,2.52-1.6-.31-5.34,3.07-7.34,7.6,11.51,9.82,25.64,17.65,36.82.42-.12.84-.23,1.25-.35.3-2.35.51-4.72.93-7.05.97-5.44,2.93-10.05,8.77-12.23,2.4-.9,3.77-2.79,3.09-6.28-3.87-19.68-16.75-31.04-34.38-38.11-3.79-1.52-7.16-3.72-10.8-5.46-1.33-.63-2.84-1.25-1.47-3.86,13.73,4.1,27.5,6.96,37.67,19.35,6.73,8.2,12.96,16.7,19.23,25.2.68.92,1.23.73,2.01.77,3.61.18,3.81,2.76,3.77,6.66,6.13-7.69,14.39-10.75,22.03-14.78,19.23-10.16,40.01-15.14,61.38-18.16,12.04-1.7,24.08-3.19,36.2-1.02,2.67.48,5.9.68,7.52,5.32-22.55-4.17-43.75.14-64.6,5.03-20.95,4.92-40.69,13.23-56.17,29.99,4.57,2.65,2.11,7.26,1.4,10.05-1.32,5.19-2.44,10.64-4.91,15.59-1.79,3.59.37,6.39,3.55,7.45,3.41,1.13,6.83,1.75,10.92.92,9.05-1.85,18.23-3.47,27.61-3.51,7.32-.03,13.17,2.79,18.37,7.49,9.53,8.61,14.92,20.21,21.83,30.7.73,1.11.69,2.73,1.09,4.45-5.16-1.13-8.28-4.36-10.96-8.03-2.93-4.02-5.69-8.16-8.46-12.3-6.51-9.72-15.69-13.98-27.25-13.36-10.79.58-21.58.06-32.59-.1-.1,6.71.56,12.26,8.13,15.97,9.04,4.43,17.07,10.87,24.4,17.94,13.37,12.91,15.41,28.86,12.72,46.31-1.89,12.26-6.66,23.51-10.9,34.98-.69,1.86-1.04,3.83-1.74,5.68-.96,2.54-1.6,5.4-4.81,6.31-2.11-1.56-.33-5.6-4.91-5.22,7.18-10.68,10.89-21.8,13.91-33.22,3.54-13.42,1.82-25.85-5.92-37.56-8.3-12.55-18.13-23.64-29.84-34-3.4,15.26-1.32,29.09,4.8,42.57,3.58,7.88,5.3,16.08,2.15,24.63-.7,1.89-.65,1.9-2.88,3.65-4.91-12.4-4.92-25.96-9.52-39.94-2.23,7.78-4.74,14.01-8,19.9-8.28,14.94-17.87,28.66-34.05,36.17-4.76,2.21-9.88,3.04-14.99,3.32-3.91.21-6.08,1.95-7.73,5.16-5.31,10.33-10.01,20.99-16.68,30.57-1.74,2.49-2.98,5.68-7.43,5.9,3.37-6.88,6.85-13.31,9.97-19.89,4.28-9.04,5.77-18.64,7.53-28.25.29-1.57-.38-2.94-1.16-4.23-3.53-5.83-4.71-12.34-5.57-18.96-2.72-21.03-1.35-41.45,8.55-60.72.73-1.42,2.53-3.1.89-4.9-1.76-1.92-3.34.17-4.88.71-12.34,4.31-25.27,5.34-38.1,6.84-6.14.72-11.5,2.68-15.39,7.92-4.92,6.62-10.45,12.75-16.21,18.65-1.37,1.41-2.26,3.1-3.97,5.97ZM323.01,263.82c-3.44,6.41-5.16,13.74-10.27,19.36,7.74-4.16,7.58-12.51,10.27-19.36ZM292.83,331.55c-5.93.85-6.49,4.26-6.34,8.22,1.86-2.41,3.72-4.83,6.34-8.22Z" style="fill: #0d462e; stroke-width: 0px;"/>
  <path d="M185.7,247.52c-2.8-1.56-5.61-3.13-8.41-4.69-27.76-15.5-45.49-39.52-57.86-68.08-2.5-5.77-4.1-11.82-5.24-17.91,1.77-1.63,3.71-1.03,5.42-.92,23.33,1.54,46.69,3.05,69.45,8.87,18.96,4.85,36.6,12.67,52.6,24.1,4.04,2.89,8.02,5.83,11.86,8.99,6.47,5.33,12.12,11.03,15.32,19.13,2.61,6.61,7.11,12.32,11.48,18.73-5.25,4.14-10.59,8.42-16.87,9.93-12.89,3.1-25.9,5.9-39.14,7.27-11.11,1.15-21.87-.38-32.33-4.15-2.05-.74-4.08-1.28-6.26-1.26ZM226.31,232.09c-3.49-1.82-6.98-3.45-11.35-3.24,3.53,3.03,7.32,3.63,11.35,3.24Z" style="fill: #087447; stroke-width: 0px;"/>
  <path d="M251.71,74.92c1.36-.14,2.87.44,3.97-.88h1.05c4.41,2.06,9.16.04,13.67,1.87h-18.69c0-.33,0-.67,0-1Z" style="fill: #0d764a; stroke-width: 0px;"/>
  <path d="M133.61,665.15c6.38-5.27,13.02-6.86,20.51-6.12,25.33,2.52,48.68,11.26,71.45,22.07,10.05,4.77,19.96,10,28.96,16.3,18.17,12.73,35.26,26.93,50.32,43.4,9.09,9.94,18.44,19.64,26.01,30.86,1.01,1.5,2.57,2.52,1.61,4.75-1.06,2.44-3.14,2.1-5.03,2.15-20.73.53-41.44-.38-62.16-.66-5.98-.08-11.97-.66-17.94-.53-4.68.1-6.43-2.28-7.35-6.33-2.75-12.15-6.18-24.08-11.99-35.19-14.19-27.09-34.71-47.48-62.97-59.82-10.03-4.38-20.23-8.19-31.41-10.89Z" style="fill: #fefefe; stroke-width: 0px;"/>
  <path d="M487.73,599.63c24.96,17.03,53.6,26.87,79.71,41.82-9.82-2.56-19.25-5.91-28.5-9.93-9.72-4.22-19.09-9.08-28.25-14.35-8.39-4.82-17-9.35-25.08-14.64l2.13-2.89Z" style="fill: #fbfcfc; stroke-width: 0px;"/>
  <path d="M644.97,328.6c26.75,1.46,53.54,3.36,79.1,12.61-26.52-3.05-53.3-4.43-79.1-12.61Z" style="fill: #fbfcfc; stroke-width: 0px;"/>
  <path d="M655.91,502.82c-18.39-5.39-36.63-11.32-54.98-16.84,19.12,2.99,37.74,7.62,54.98,16.84Z" style="fill: #f8faf9; stroke-width: 0px;"/>
  <path d="M398.52,742.33c10.2,0,26.1,3.79,30.56,7.57-10.77-1.32-21.09-1.09-30.56-7.57Z" style="fill: #f1f7f5; stroke-width: 0px;"/>
  <path d="M304.26,685.77c10.07-1.9,20.19-3.26,30.2.44-10.06.63-20.12,1.02-30.2-.44Z" style="fill: #fbfcfc; stroke-width: 0px;"/>
  <path d="M502.04,446.15c-9.16-.99-18.18-2.65-26.81-6.03,9.38.03,18.06,3.2,26.81,6.03Z" style="fill: #f2f7f5; stroke-width: 0px;"/>
  <path d="M251.71,74.92c0,.33,0,.67,0,1h-23.75c0-.33,0-.67-.01-1h23.76Z" style="fill: #11784d; stroke-width: 0px;"/>
  <path d="M323.01,263.82c-2.69,6.85-2.53,15.2-10.27,19.36,5.11-5.62,6.83-12.94,10.27-19.36Z" style="fill: #ebefee; stroke-width: 0px;"/>
  <path d="M292.83,331.55c-2.62,3.39-4.48,5.81-6.34,8.22-.15-3.96.41-7.37,6.34-8.22Z" style="fill: #c0cfc9; stroke-width: 0px;"/>
  <path d="M226.31,232.09c-4.02.39-7.82-.21-11.35-3.24,4.36-.2,7.86,1.42,11.35,3.24Z" style="fill: #c8e0d6; stroke-width: 0px;"/>
</svg>